<?xml version="1.0" encoding="UTF-8"?>
<svg id="uuid-2affe327-3058-4d7a-a50f-50c5d07b6782" data-name="图层 1" xmlns="http://www.w3.org/2000/svg" viewBox="0 0 648.41 433.38">
  <defs>
    <style>
      .uuid-a0aea7bd-3c93-4c48-a945-9ea5f7fd6262 {
        fill: #ff9908;
      }

      .uuid-a0aea7bd-3c93-4c48-a945-9ea5f7fd6262, .uuid-df789a05-0c91-4c2a-8ebd-76806b98671b {
        stroke: #231815;
        stroke-miterlimit: 10;
        stroke-width: 4px;
      }

      .uuid-df789a05-0c91-4c2a-8ebd-76806b98671b {
        fill: #fff;
      }
    </style>
  </defs>
  <g>
    <ellipse class="uuid-df789a05-0c91-4c2a-8ebd-76806b98671b" cx="197.96" cy="209.18" rx="208.08" ry="161.64" transform="translate(-59.31 338.63) rotate(-73.29)"/>
    <ellipse class="uuid-df789a05-0c91-4c2a-8ebd-76806b98671b" cx="168.01" cy="206.69" rx="208.08" ry="161.64" transform="translate(-78.26 308.17) rotate(-73.29)"/>
  </g>
  <g>
    <ellipse class="uuid-a0aea7bd-3c93-4c48-a945-9ea5f7fd6262" cx="480.39" cy="226.69" rx="208.08" ry="161.64" transform="translate(125.13 621.61) rotate(-73.29)"/>
    <ellipse class="uuid-a0aea7bd-3c93-4c48-a945-9ea5f7fd6262" cx="450.45" cy="224.2" rx="208.08" ry="161.64" transform="translate(106.18 591.14) rotate(-73.29)"/>
  </g>
  <path d="M75.95,207.81c16.22-64.59,68.64-100.8,120.53-100.8,31.35,0,49.45,14.05,60.54,27.84l-30.81,27.56c-7.3-8.92-16.22-14.05-31.08-14.05-31.62,0-61.08,25.4-71.35,67.02-9.46,37.57,1.35,58.64,36.75,58.64,9.19,0,17.84-3.24,22.97-6.48l9.19-31.08h-31.89l10-39.46h74.59l-22.43,95.67c-17.3,13.51-44.05,22.97-70.26,22.97-57.83,0-94.05-37.3-76.75-107.83Z"/>
  <path d="M245.25,292.84v-4.23c0-3.97-.07-5.43-.22-8.31l-4.42-.65v-2.84l14.24-4.8,1.24,.77,.66,8.87v11.19c0,4.48,.07,11.91,.21,15.16h-11.94c.14-3.25,.22-10.69,.22-15.16Zm-4.06,11.8l6.9-1.45h7.59l6.9,1.45v3.36h-21.39v-3.36Zm10.23-21.34h5.42l-.97,1.96c1.27-8.85,6.3-13.26,10.61-13.26,3.13,0,5.67,1.74,6.27,5.32-.16,3.76-2.24,5.89-5.13,5.89-2.18,0-3.86-1.07-5.58-3.35l-2.11-2.75,2.92,1.05c-2.6,1.89-5.2,5.71-6.13,10.02l-5.3-.52v-4.37Z"/>
  <path d="M477.94,124.18c44.43,0,78.47,12.36,67.51,50.7-4.04,14.38-17.89,31.28-36.06,37.08l-4.62,.76c20.2,5.05,34.04,20.69,26.25,47.93-10.1,36.07-49.62,51.21-96.36,51.21h-83.09l53.37-187.67h72.99Zm6.35,124.86c3.75-13.12-5.48-17.15-30.58-17.15h-27.7l-12.98,45.4h23.66c24.81,0,42.41-9.84,47.6-28.25Zm11.54-75.93c3.17-11.1-4.04-14.63-25.68-14.63h-23.37l-11.25,40.11h19.33c21.93,0,36.64-10.34,40.97-25.48Z"/>
  <polygon points="455.19 139.16 425.24 139.16 436.12 98.87 466.06 98.87 455.19 139.16"/>
  <polygon points="509.88 139.16 479.93 139.16 490.81 98.87 520.75 98.87 509.88 139.16"/>
  <polygon points="400.69 340.75 370.74 340.75 381.61 300.47 411.56 300.47 400.69 340.75"/>
  <polygon points="460.37 340.75 430.42 340.75 441.3 300.47 471.24 300.47 460.37 340.75"/>
</svg>