<?xml version="1.0" encoding="UTF-8"?>
<svg id="uuid-e03798ea-0e21-455d-8290-0ea4ff5af061" data-name="图层 1" xmlns="http://www.w3.org/2000/svg" viewBox="0 0 320 320">
  <defs>
    <style>
      .uuid-55976809-204b-4512-9e4f-1760a590fc75 {
        fill: #f77829;
      }

      .uuid-718262e7-ee8b-45d4-a36f-69fe388dcc4d {
        fill: #eff0f0;
      }

      .uuid-6cd57f9e-d41d-4111-9093-284f33e443af {
        fill: #b3b3b3;
      }

      .uuid-de0c6f7f-9beb-422d-9eea-5ff592d68300 {
        fill: #fdfdfd;
        stroke: #231815;
        stroke-miterlimit: 10;
      }
    </style>
  </defs>
  <g>
    <rect class="uuid-6cd57f9e-d41d-4111-9093-284f33e443af" width="320" height="320" rx="17.49" ry="17.49"/>
    <path class="uuid-de0c6f7f-9beb-422d-9eea-5ff592d68300" d="M244.68,121.16c-3.58-.26-3.78-1.7-3.79-4.53-.02-7.74,.24-15.48-.33-23.23-2.81-38.27-33.33-69.22-72.81-73.66-37.06-4.17-74.05,20.51-85.02,56.41-4.05,13.25-3.7,26.76-3.64,40.3,.01,2.57,.28,4.43-3.58,4.7-12.23,.88-19.33,8.89-19.34,21.27-.03,45.62-.03,91.24,0,136.86,.01,13.31,8.13,21.41,21.32,21.42,27.48,.01,54.95,0,82.43,0,27.65,0,55.31,.01,82.96,0,12.54,0,20.95-8.24,20.96-20.71,.05-45.97,.04-91.94,0-137.91,0-11.96-7.26-20.04-19.16-20.91Zm-28.37-.09c-18.84-.18-37.69-.09-56.53-.09s-37.34-.08-56,.08c-3.39,.03-4.55-.78-4.39-4.32,.5-10.52-.67-21.09,2.09-31.51,7.58-28.58,35.28-48.31,63.77-45.2,30.84,3.36,53.79,27.3,55.1,57.63,.27,6.33-.04,12.68,.28,19.01,.17,3.42-.8,4.44-4.32,4.4Z"/>
  </g>
  <g>
    <circle cx="160" cy="213.23" r="50"/>
    <g>
      <path class="uuid-718262e7-ee8b-45d4-a36f-69fe388dcc4d" d="M123.86,223.01c4.97-1.6,7.31,.17,9.41,4.52,3.26,6.75,9.05,11.29,16.17,13.86,1.99,.72,5.33,2.86,5.94,.29,.65-2.76,2.82-7.17-2.99-9.15-8.14-2.77-12.84-9.08-13.43-17.78-.68-10.14,5.04-18.38,14.47-21.22,7.51-2.27,18.62-.1,23.92,10.14-4.06,.45-7.47,.69-11.13-2.08-4.86-3.67-13.17-1.81-17.17,2.94-4.05,4.8-4.02,12.68,.05,17.51,4.04,4.79,11.89,6.16,17.31,3.02q4.92-2.85,10.97-1.96c-1.68,4.02-4.75,7.45-8.54,8.31-6.96,1.57-6.39,6.02-5.82,10.97,13.51-1.06,24.45-11.73,25.95-25.3,1.67-15.08-7.04-28.28-21.48-32.55-13.53-4-28.49,2.63-34.9,15.49-.44,.88-.51,2-1.09,2.74-1.64,2.11-4.22,1.6-6.05,1-2.7-.89-.64-3.04-.09-4.39,5.94-14.73,20.97-24.07,36.56-22.89,15.84,1.21,29.43,12.54,33.14,27.64,3.79,15.41-2.47,31.79-15.25,39.93-13.82,8.8-31.24,7.83-43.69-2.38-5.94-4.88-10.08-10.9-12.25-18.68Z"/>
      <path class="uuid-55976809-204b-4512-9e4f-1760a590fc75" d="M166.8,213.28c-.02,4.17-3.41,7.51-7.62,7.28-4.37-.24-7.02-2.68-7.13-7.06-.12-4.68,2.55-7.31,7.22-7.57,4.21-.23,7.56,3.16,7.54,7.35Z"/>
    </g>
  </g>
</svg>