<?xml version="1.0" encoding="UTF-8"?>
<svg id="uuid-f73fafe2-dbef-4dfc-97d7-86a5960e0198" data-name="图层 1" xmlns="http://www.w3.org/2000/svg" viewBox="0 0 320 320">
  <defs>
    <style>
      .uuid-2ee702d1-5a8b-4b37-84ed-4e2301a1d570 {
        fill: #f3a13d;
      }

      .uuid-df50f135-4e73-49f6-a93c-37f7f93899ae {
        fill: #b3b3b3;
      }

      .uuid-2ff89c23-a490-4e14-a85f-11f5fb052406 {
        fill: #292827;
      }

      .uuid-b8d3dcb5-f0a7-4bdd-9aef-0009b4923a56 {
        fill: #fdfdfd;
        stroke: #231815;
        stroke-miterlimit: 10;
      }
    </style>
  </defs>
  <g>
    <rect class="uuid-df50f135-4e73-49f6-a93c-37f7f93899ae" width="320" height="320" rx="17.49" ry="17.49"/>
    <path class="uuid-b8d3dcb5-f0a7-4bdd-9aef-0009b4923a56" d="M244.68,121.16c-3.58-.26-3.78-1.7-3.79-4.53-.02-7.74,.24-15.48-.33-23.23-2.81-38.27-33.33-69.22-72.81-73.66-37.06-4.17-74.05,20.51-85.02,56.41-4.05,13.25-3.7,26.76-3.64,40.3,.01,2.57,.28,4.43-3.58,4.7-12.23,.88-19.33,8.89-19.34,21.27-.03,45.62-.03,91.24,0,136.86,.01,13.31,8.13,21.41,21.32,21.42,27.48,.01,54.95,0,82.43,0,27.65,0,55.31,.01,82.96,0,12.54,0,20.95-8.24,20.96-20.71,.05-45.97,.04-91.94,0-137.91,0-11.96-7.26-20.04-19.16-20.91Zm-28.37-.09c-18.84-.18-37.69-.09-56.53-.09s-37.34-.08-56,.08c-3.39,.03-4.55-.78-4.39-4.32,.5-10.52-.67-21.09,2.09-31.51,7.58-28.58,35.28-48.31,63.77-45.2,30.84,3.36,53.79,27.3,55.1,57.63,.27,6.33-.04,12.68,.28,19.01,.17,3.42-.8,4.44-4.32,4.4Z"/>
  </g>
  <g>
    <path class="uuid-2ff89c23-a490-4e14-a85f-11f5fb052406" d="M160.1,163.23c27.57,.02,49.91,22.43,49.9,50.06-.01,27.56-22.47,49.98-50.02,49.94-27.65-.04-50.01-22.44-49.98-50.07,.02-27.62,22.43-49.95,50.1-49.93Zm-43.15,49.95c-.09,23.43,18.89,43.24,43.34,43.1,23.84-.13,43.28-19.52,42.81-44.03-.44-23.17-19.55-42.58-44.03-42.11-23.07,.44-42.14,19.35-42.12,43.04Z"/>
    <path class="uuid-2ee702d1-5a8b-4b37-84ed-4e2301a1d570" d="M116.95,213.18c-.02-23.69,19.05-42.6,42.12-43.04,24.48-.47,43.58,18.94,44.03,42.11,.47,24.51-18.97,43.9-42.81,44.03-24.45,.14-43.43-19.68-43.34-43.1Zm49.68,19.3c1.89,.05,3.74-.17,5.48-.94,3.24-1.43,4.73-4.21,5.59-7.43,.37-1.38,.52-2.79,.24-4.22-.48-2.49-2.06-4.14-4.16-5.39-.17-.1-.41-.14-.38-.39,.02-.19,.19-.23,.37-.29,2.53-.92,4.18-2.66,4.9-5.28,.95-3.46,.31-6.47-2.5-8.85-1.67-1.42-3.63-2.35-5.68-3.09q-.99-.36-.73-1.37c.49-1.96,.95-3.92,1.49-5.87,.2-.73,.02-1.01-.7-1.14-1.03-.2-2.05-.44-3.05-.75-.64-.2-.81,.03-.95,.6-.49,2.06-1.05,4.1-1.53,6.17-.13,.54-.34,.6-.81,.47-.81-.23-1.64-.42-2.47-.58-.53-.1-.69-.26-.53-.84,.57-2.12,1.05-4.26,1.6-6.38,.12-.46,0-.62-.43-.71-1.17-.26-2.33-.53-3.48-.86-.52-.15-.69-.02-.81,.49-.52,2.18-1.08,4.35-1.61,6.53-.1,.41-.23,.6-.7,.46-.67-.2-1.36-.32-2.04-.49-2.1-.52-4.21-1.05-6.31-1.59-.38-.1-.67-.14-.79,.36-.31,1.31-.62,2.62-.96,3.92-.12,.46,.03,.61,.45,.71,1.02,.24,2.04,.49,3.03,.8,1.65,.51,2.27,1.6,1.86,3.27-1.67,6.75-3.36,13.49-5.05,20.23-.35,1.4-1.14,1.87-2.56,1.53-.87-.21-1.74-.42-2.61-.66-.42-.11-.63,0-.8,.41-.58,1.41-1.18,2.8-1.81,4.19-.24,.52-.18,.69,.41,.83,2.67,.63,5.32,1.33,7.98,1.97,.62,.15,.85,.35,.65,1.06-.58,2.09-1.03,4.21-1.59,6.3-.17,.65,.04,.83,.61,.94,1.02,.21,2.06,.42,3.04,.75,.78,.26,.96-.05,1.12-.72,.48-2.09,1.04-4.16,1.54-6.24,.11-.44,.26-.58,.71-.45,.84,.24,1.68,.46,2.54,.64,.56,.12,.7,.34,.54,.91-.56,2.07-1.05,4.15-1.6,6.22-.15,.55-.11,.86,.56,.99,1.1,.22,2.18,.52,3.26,.82,.52,.15,.75,.04,.88-.52,.5-2.13,1.06-4.26,1.56-6.39,.13-.58,.35-.77,.97-.66,1.74,.31,3.49,.58,5.27,.53Z"/>
    <path class="uuid-2ff89c23-a490-4e14-a85f-11f5fb052406" d="M166.63,232.48c-1.78,.05-3.53-.22-5.27-.53-.62-.11-.83,.08-.97,.66-.5,2.14-1.06,4.26-1.56,6.39-.13,.55-.37,.66-.88,.52-1.08-.3-2.16-.61-3.26-.82-.66-.13-.7-.43-.56-.99,.55-2.07,1.04-4.16,1.6-6.22,.15-.57,.01-.8-.54-.91-.85-.18-1.7-.39-2.54-.64-.45-.13-.61,0-.71,.45-.5,2.08-1.05,4.15-1.54,6.24-.16,.68-.34,.98-1.12,.72-.99-.33-2.02-.54-3.04-.75-.57-.12-.78-.3-.61-.94,.56-2.09,1.02-4.22,1.59-6.3,.2-.71-.03-.91-.65-1.06-2.66-.64-5.31-1.34-7.98-1.97-.6-.14-.65-.31-.41-.83,.63-1.38,1.23-2.78,1.81-4.19,.17-.41,.38-.52,.8-.41,.87,.24,1.74,.45,2.61,.66,1.42,.34,2.21-.13,2.56-1.53,1.69-6.74,3.37-13.49,5.05-20.23,.41-1.67-.21-2.77-1.86-3.27-1-.31-2.02-.56-3.03-.8-.43-.1-.57-.25-.45-.71,.35-1.3,.66-2.61,.96-3.92,.12-.5,.4-.46,.79-.36,2.1,.54,4.2,1.06,6.31,1.59,.68,.17,1.37,.29,2.04,.49,.47,.14,.61-.06,.7-.46,.53-2.18,1.1-4.35,1.61-6.53,.12-.51,.29-.64,.81-.49,1.15,.33,2.32,.6,3.48,.86,.44,.1,.55,.26,.43,.71-.55,2.12-1.03,4.26-1.6,6.38-.16,.58,0,.74,.53,.84,.83,.15,1.66,.35,2.47,.58,.47,.13,.68,.08,.81-.47,.48-2.06,1.04-4.11,1.53-6.17,.14-.57,.31-.8,.95-.6,1,.31,2.02,.56,3.05,.75,.72,.14,.9,.42,.7,1.14-.54,1.94-1,3.91-1.49,5.87q-.25,1.01,.73,1.37c2.05,.74,4.01,1.67,5.68,3.09,2.81,2.38,3.45,5.39,2.5,8.85-.72,2.62-2.36,4.36-4.9,5.28-.18,.06-.35,.11-.37,.29-.03,.25,.21,.29,.38,.39,2.1,1.24,3.67,2.9,4.16,5.39,.28,1.42,.13,2.84-.24,4.22-.87,3.22-2.36,5.99-5.59,7.43-1.74,.77-3.59,.99-5.48,.94Zm-4.39-6.8c.75,.02,1.5-.01,2.23-.17,1.47-.32,2.74-.93,3.41-2.38,1.09-2.34,.34-4.62-2.04-6.16-2.8-1.81-6.02-2.43-9.19-3.19-.46-.11-.49,.23-.56,.5-.78,3.11-1.55,6.23-2.34,9.34-.1,.4,0,.55,.35,.64,2.68,.67,5.34,1.41,8.14,1.42Zm7.42-19.98c.13-.76-.07-1.61-.71-2.32-.43-.48-.9-.92-1.45-1.28-2.23-1.43-4.79-1.9-7.3-2.52-.38-.09-.48,.11-.55,.41-.7,2.8-1.39,5.6-2.1,8.4-.11,.43,0,.63,.44,.74,2.37,.59,4.72,1.19,7.2,1.1,2.82-.1,4.49-1.68,4.48-4.53Z"/>
    <path class="uuid-2ee702d1-5a8b-4b37-84ed-4e2301a1d570" d="M162.25,225.68c-2.79,0-5.46-.76-8.14-1.42-.35-.09-.46-.24-.35-.64,.8-3.11,1.56-6.23,2.34-9.34,.07-.28,.09-.62,.56-.5,3.17,.76,6.39,1.38,9.19,3.19,2.38,1.54,3.14,3.82,2.04,6.16-.68,1.45-1.95,2.06-3.41,2.38-.73,.16-1.48,.2-2.23,.17Z"/>
    <path class="uuid-2ee702d1-5a8b-4b37-84ed-4e2301a1d570" d="M169.67,205.69c0,2.85-1.66,4.42-4.48,4.53-2.48,.09-4.83-.51-7.2-1.1-.44-.11-.55-.31-.44-.74,.71-2.8,1.41-5.6,2.1-8.4,.07-.3,.17-.5,.55-.41,2.51,.62,5.07,1.08,7.3,2.52,.55,.35,1.02,.8,1.45,1.28,.64,.71,.84,1.56,.71,2.32Z"/>
  </g>
</svg>