<?xml version="1.0" encoding="UTF-8"?>
<svg id="uuid-91d1c05a-b5b2-496a-8355-5fe6fc531b5d" data-name="图层 1" xmlns="http://www.w3.org/2000/svg" viewBox="0 0 101.5 101.5">
  <defs>
    <style>
      .uuid-6f69b60e-228d-44e0-80fa-85121032fb04 {
        fill: none;
        stroke: #fff;
        stroke-miterlimit: 10;
        stroke-width: 3px;
      }
    </style>
  </defs>
  <path class="uuid-6f69b60e-228d-44e0-80fa-85121032fb04" d="M50.85,.75c27.57,.02,49.91,22.43,49.9,50.06-.01,27.56-22.47,49.98-50.02,49.94-27.65-.04-50-22.44-49.98-50.07C.77,23.06,23.18,.73,50.85,.75ZM7.7,50.7c-.09,23.43,18.89,43.24,43.34,43.1,23.84-.13,43.28-19.52,42.81-44.03-.44-23.17-19.55-42.58-44.02-42.11C26.76,8.1,7.68,27.02,7.7,50.7Z"/>
  <path class="uuid-6f69b60e-228d-44e0-80fa-85121032fb04" d="M57.38,70c-1.78,.05-3.53-.22-5.27-.53-.62-.11-.83,.08-.97,.66-.5,2.14-1.06,4.26-1.56,6.39-.13,.55-.37,.66-.88,.52-1.08-.3-2.16-.61-3.26-.82-.66-.13-.7-.43-.56-.99,.55-2.07,1.04-4.16,1.6-6.22,.15-.57,.01-.8-.54-.91-.85-.18-1.7-.39-2.54-.64-.45-.13-.61,0-.71,.45-.5,2.08-1.05,4.15-1.54,6.24-.16,.68-.34,.98-1.12,.72-.99-.33-2.02-.54-3.04-.75-.57-.12-.78-.3-.61-.94,.56-2.09,1.02-4.22,1.59-6.3,.2-.71-.03-.91-.65-1.06-2.66-.64-5.31-1.34-7.98-1.97-.6-.14-.65-.31-.41-.83,.63-1.38,1.23-2.78,1.81-4.19,.17-.41,.38-.52,.8-.41,.87,.24,1.74,.45,2.61,.66,1.42,.34,2.21-.13,2.56-1.53,1.69-6.74,3.37-13.49,5.05-20.23,.41-1.67-.21-2.77-1.86-3.27-1-.31-2.02-.56-3.03-.8-.43-.1-.57-.25-.45-.71,.35-1.3,.66-2.61,.96-3.92,.12-.5,.4-.46,.79-.36,2.1,.54,4.2,1.06,6.31,1.59,.68,.17,1.37,.29,2.04,.49,.47,.14,.61-.06,.7-.46,.53-2.18,1.1-4.35,1.61-6.53,.12-.51,.29-.64,.81-.49,1.15,.33,2.32,.6,3.48,.86,.44,.1,.55,.26,.43,.71-.55,2.12-1.03,4.26-1.6,6.38-.16,.58,0,.74,.53,.84,.83,.15,1.66,.35,2.47,.58,.47,.13,.68,.08,.81-.47,.48-2.06,1.04-4.11,1.53-6.17,.14-.57,.31-.8,.95-.6,1,.31,2.02,.56,3.05,.75,.72,.14,.9,.42,.7,1.14-.54,1.94-1,3.91-1.49,5.87q-.25,1.01,.73,1.37c2.05,.74,4.01,1.67,5.68,3.09,2.81,2.38,3.45,5.39,2.5,8.85-.72,2.62-2.36,4.36-4.9,5.28-.18,.06-.35,.11-.37,.29-.03,.25,.21,.29,.38,.39,2.1,1.24,3.67,2.9,4.16,5.39,.28,1.42,.13,2.84-.24,4.22-.87,3.22-2.36,5.99-5.59,7.43-1.74,.77-3.59,.99-5.48,.94Zm-4.39-6.8c.75,.02,1.5-.01,2.23-.17,1.47-.32,2.74-.93,3.41-2.38,1.09-2.34,.34-4.62-2.04-6.16-2.8-1.81-6.02-2.43-9.19-3.19-.46-.11-.49,.23-.56,.5-.78,3.11-1.55,6.23-2.34,9.34-.1,.4,0,.55,.35,.64,2.68,.67,5.34,1.41,8.14,1.42Zm7.42-19.98c.13-.76-.07-1.61-.71-2.32-.43-.48-.9-.92-1.45-1.28-2.23-1.43-4.79-1.9-7.3-2.52-.38-.09-.48,.11-.55,.41-.7,2.8-1.39,5.6-2.1,8.4-.11,.43,0,.63,.44,.74,2.37,.59,4.72,1.19,7.2,1.1,2.82-.1,4.49-1.68,4.48-4.53Z"/>
</svg>
