<?xml version="1.0" encoding="UTF-8"?>
<svg id="uuid-45257fb0-663d-431a-ad18-031c63843ef1" data-name="图层 1" xmlns="http://www.w3.org/2000/svg" viewBox="0 0 320 320">
  <defs>
    <style>
      .uuid-40c6adc1-eb3c-46a5-9997-f30e1023105a, .uuid-e38b3723-3210-476f-869b-502d94e025c6 {
        fill: #fdfdfd;
      }

      .uuid-026c359e-0ec1-4320-98fc-526db15bf80d {
        fill: #b3b3b3;
      }

      .uuid-e38b3723-3210-476f-869b-502d94e025c6 {
        stroke: #231815;
        stroke-miterlimit: 10;
      }
    </style>
  </defs>
  <g>
    <rect class="uuid-026c359e-0ec1-4320-98fc-526db15bf80d" width="320" height="320" rx="17.49" ry="17.49"/>
    <path class="uuid-e38b3723-3210-476f-869b-502d94e025c6" d="M244.68,121.16c-3.58-.26-3.78-1.7-3.79-4.53-.02-7.74,.24-15.48-.33-23.23-2.81-38.27-33.33-69.22-72.81-73.66-37.06-4.17-74.05,20.51-85.02,56.41-4.05,13.25-3.7,26.76-3.64,40.3,.01,2.57,.28,4.43-3.58,4.7-12.23,.88-19.33,8.89-19.34,21.27-.03,45.62-.03,91.24,0,136.86,.01,13.31,8.13,21.41,21.32,21.42,27.48,.01,54.95,0,82.43,0,27.65,0,55.31,.01,82.96,0,12.54,0,20.95-8.24,20.96-20.71,.05-45.97,.04-91.94,0-137.91,0-11.96-7.26-20.04-19.16-20.91Zm-28.37-.09c-18.84-.18-37.69-.09-56.53-.09s-37.34-.08-56,.08c-3.39,.03-4.55-.78-4.39-4.32,.5-10.52-.67-21.09,2.09-31.51,7.58-28.58,35.28-48.31,63.77-45.2,30.84,3.36,53.79,27.3,55.1,57.63,.27,6.33-.04,12.68,.28,19.01,.17,3.42-.8,4.44-4.32,4.4Z"/>
  </g>
  <g>
    <circle cx="160" cy="213.23" r="50"/>
    <path class="uuid-40c6adc1-eb3c-46a5-9997-f30e1023105a" d="M178.64,242.71c-5.04-4.45-9.94-8.77-14.98-13.22-.02,.5-.05,.81-.05,1.12,0,5.85,0,11.69,0,17.54q0,1.25-1.29,1.25c-1.68,0-3.37-.03-5.05,.02-.66,.02-.84-.16-.83-.83,.03-6.11,.02-12.22,.02-18.33v-.8c-5.05,4.47-9.98,8.84-14.9,13.2-.31-.14-.19-.38-.19-.56,0-2.89,0-5.79-.02-8.68,0-.46,.14-.75,.48-1.05,5.53-4.97,11.05-9.96,16.57-14.95,.13-.12,.28-.21,.46-.34-.36-.32-.7-.21-1-.21-5.2,0-10.4-.02-15.6,.01-.75,0-.94-.2-.91-.93,.06-1.83,.06-3.66,0-5.49-.03-.74,.24-.85,.89-.85,5.17,.02,10.34,.01,15.52,.01h1.12c-.4-.69-.98-1.06-1.45-1.49-5.2-4.72-10.42-9.42-15.65-14.11-.29-.26-.42-.51-.41-.9,.02-3.1,0-6.2,0-9.52,5.06,4.48,10,8.86,15.09,13.37,0-.48,0-.78,0-1.09,0-5.99,.01-11.99-.02-17.98,0-.72,.21-.88,.89-.86,1.8,.05,3.61,.06,5.41,0,.78-.03,.9,.24,.9,.95-.03,5.93-.02,11.87-.02,17.8v1.2c5.06-4.5,9.95-8.85,14.88-13.23,.2,.31,.13,.58,.13,.82,0,2.69-.02,5.37,.02,8.06,.01,.75-.21,1.24-.77,1.74-5.4,4.85-10.78,9.74-16.16,14.61-.15,.13-.29,.27-.47,.44,.32,.33,.69,.19,1.01,.2,5.17,0,10.34,.02,15.52,0,.66,0,.91,.11,.89,.85-.06,1.86-.05,3.72,0,5.58,.02,.65-.14,.84-.82,.84-5.2-.03-10.4-.02-15.6-.02-.31,0-.63,0-1.18,0,1.69,1.53,3.21,2.9,4.73,4.27,4.17,3.75,8.34,7.5,12.51,11.24,.21,.19,.35,.36,.35,.67,0,3.15,0,6.31,0,9.67Z"/>
  </g>
</svg>