<?xml version="1.0" encoding="UTF-8"?>
<svg id="uuid-078ac45b-86cc-4bb2-998c-aad5666c186e" data-name="图层 1" xmlns="http://www.w3.org/2000/svg" viewBox="0 0 75.82 102">
  <defs>
    <style>
      .uuid-301d78c9-0665-4380-b026-06df2210174e {
        fill: none;
        stroke: #fff;
        stroke-miterlimit: 10;
        stroke-width: 4px;
      }
    </style>
  </defs>
  <path class="uuid-301d78c9-0665-4380-b026-06df2210174e" d="M37.88,101c-9.76,0-19.53,0-29.29,0-4.69,0-7.57-2.88-7.58-7.61-.01-16.21-.01-32.42,0-48.63,0-4.4,2.52-7.25,6.87-7.56,1.37-.1,1.27-.76,1.27-1.67-.02-4.81-.14-9.61,1.29-14.32C14.35,8.45,27.49-.32,40.66,1.16c14.03,1.58,24.87,12.58,25.87,26.17,.2,2.75,.11,5.5,.12,8.25,0,1,.07,1.52,1.35,1.61,4.23,.31,6.8,3.18,6.81,7.43,.01,16.34,.01,32.67,0,49.01,0,4.43-2.99,7.36-7.45,7.36-9.83,0-19.65,0-29.48,0Zm-.05-63.86c6.7,0,13.39-.03,20.09,.03,1.25,.01,1.59-.35,1.53-1.56-.11-2.25,0-4.51-.1-6.76-.47-10.78-8.62-19.28-19.58-20.48-10.13-1.1-19.97,5.91-22.66,16.06-.98,3.7-.57,7.46-.74,11.2-.06,1.26,.35,1.55,1.56,1.54,6.63-.06,13.27-.03,19.9-.03Zm-2.15,44.53c0,.75,0,1.5,0,2.25,0,3.18,0,3.11,3.19,3.09,1.15,0,1.33-.45,1.3-1.43-.06-2.25,.06-4.51-.05-6.76-.07-1.4,.28-2.12,1.69-2.78,3.56-1.66,5.24-5.59,4.36-9.44-.8-3.55-4.12-6.32-7.8-6.51-3.78-.2-7.28,2.19-8.52,5.81-1.2,3.51-.09,7.91,3.26,9.49,2.76,1.3,2.65,3.11,2.57,5.33-.01,.31,0,.63,0,.94Z"/>
  <path class="uuid-301d78c9-0665-4380-b026-06df2210174e" d="M35.67,81.67c0-.31,0-.63,0-.94,.08-2.22,.2-4.03-2.57-5.33-3.36-1.58-4.46-5.98-3.26-9.49,1.24-3.62,4.74-6.01,8.52-5.81,3.67,.19,6.99,2.97,7.8,6.51,.87,3.86-.8,7.78-4.36,9.44-1.41,.65-1.75,1.38-1.69,2.78,.11,2.25-.01,4.51,.05,6.76,.03,.99-.15,1.43-1.3,1.43-3.19,.02-3.19,.08-3.19-3.09,0-.75,0-1.5,0-2.25Z"/>
</svg>
