<?xml version="1.0" encoding="UTF-8"?>
<svg id="uuid-792d1e13-8514-4ca9-a981-cf32c87bcf21" data-name="图层 1" xmlns="http://www.w3.org/2000/svg" viewBox="0 0 103.33 100">
  <defs>
    <style>
      .uuid-29f05316-a847-401a-881c-c78e88ef0fbd {
        fill: none;
      }

      .uuid-590b2d10-138c-4645-982c-4427064c6f0b {
        fill: #fff;
      }
    </style>
  </defs>
  <path class="uuid-590b2d10-138c-4645-982c-4427064c6f0b" d="M51.59,99.98c-14.14,0-28.28,.01-42.43,0-6.59,0-9.04-2.5-9.08-9.09,0-.82,.1-1.65-.01-2.45-.34-2.51,.49-3.88,3.22-3.42,2.77,.46,2.91-1.14,2.91-3.29-.05-14.84-.01-29.69,0-44.53,0-6.87,2.34-9.13,9.3-9.11,8.65,.02,17.3,0,25.95-.05,1.15,0,2.73,.53,2.77-1.62,.04-2.31-1.67-1.46-2.71-1.48-4.32-.08-8.66-.2-12.97,.06-2.91,.17-3.75-.95-3.5-3.61,.15-1.62-.03-3.27,.02-4.91,.07-2.45,.1-4.52-2.55-6.19-2.76-1.74-2.66-5.95-.46-8.42,2.04-2.29,6.32-2.49,8.57-.39,2.38,2.22,2.97,6.86,.33,8.4-3.63,2.13-2.75,5.08-3.03,8.08-.29,3.06,.55,4.28,3.86,4.01,3.95-.32,7.95,.07,11.91-.12,2.6-.13,3.47,.74,3.44,3.35-.12,8.65-.03,17.3-.02,25.94,0,.93,.01,1.87,.06,2.8,.06,1.13,.71,1.67,1.82,1.66,1.15-.01,1.24-.84,1.26-1.7,.02-.58,.01-1.17,.01-1.75,0-11.22-.03-22.44,.01-33.66,0-1.82-.18-3.12-2.03-4.3-3.14-1.99-3.42-6.16-1.03-8.88,2.18-2.48,6.52-2.58,8.76-.21,2.61,2.76,2.32,6.89-.94,9.12-1.58,1.08-2.03,2.19-2.02,3.99,.07,11.57,.02,23.14,.07,34.71,0,.97-.77,2.58,1.23,2.63,1.83,.05,1.93-1.28,1.93-2.66,0-9.11,.12-18.23-.07-27.34-.06-3,.91-3.86,3.8-3.72,4.31,.21,8.65-.03,12.97,.08,1.78,.05,2.6-.4,2.45-2.31-.14-1.74-.1-3.51-.02-5.26,.07-1.51-.24-2.46-1.74-3.35-2.58-1.54-3.38-4.14-2.42-7.01,.92-2.75,2.93-4.04,5.9-3.95,2.68,.08,4.48,1.36,5.29,3.79,.99,2.97,.32,5.65-2.52,7.27-1.35,.77-1.73,1.61-1.66,3.04,.1,2.33-.18,4.7,.08,7.01,.36,3.23-1.02,4-4,3.83-4.08-.24-8.18-.13-12.27-.03-1.03,.02-2.78-.92-2.8,1.42-.02,2.13,1.56,1.67,2.72,1.68,8.53,.04,17.06,.01,25.6,.03,7.32,.02,9.61,2.3,9.61,9.58-.01,15.07-.02,30.15-.09,45.22,0,1.81,.41,2.65,2.4,2.19,3.19-.73,4.21,.82,3.83,3.81-.25,1.95,.25,3.95-.4,5.9-1.16,3.49-3.69,5.21-8.14,5.22-14.38,.02-28.75,0-43.13,0v-.02Zm-7.91-48.19c.17-.31,.34-.63,.51-.94,0-3.82-.12-7.64,.05-11.46,.09-2.04-.58-2.56-2.55-2.53-7.93,.1-15.87,.1-23.8,0-2.06-.02-2.88,.49-2.86,2.72,.09,12.37,.03,24.74,.04,37.11,0,.99-.34,2.16,1.34,2.28,1.85,.13,1.86-1.16,1.73-2.28-.24-2.1,.82-2.92,2.66-3.33,1.48-.33,2.91-.83,4.36-1.26,4.7-1.4,7.07-5.79,5.97-10.66-1.95-8.65-2.63-6.09,4.34-10.41,.1-.06,.2-.12,.29-.19,2.71-1.83,5.41-3.63,7.93,.96Zm7.68,45.31c.58,0,1.17,0,1.75,0,13.78,0,27.56,.03,41.34-.01,4.67-.02,7.43-4.04,5.89-8.42-.23-.65-.49-.94-1.44-.93-11.19,.15-22.39,.2-33.59,.19-1.6,0-2.6,.35-3.25,1.92-1.16,2.78-3.49,3.97-6.39,4.07-2.45,.08-4.9,.05-7.35,.05-3.32,0-5.89-1.31-7.27-4.45-.48-1.09-1.07-1.58-2.34-1.57-11.21,.06-22.42,.03-33.63,.04-.89,0-1.93-.3-2,1.2-.21,4.3-.15,8.02,6.25,7.95,14.01-.17,28.02-.05,42.04-.04Zm.19-12.08c13.2,0,26.4-.06,39.6,.06,2.42,.02,3.12-.56,3.1-3.07-.12-15.07-.03-30.13-.05-45.2,0-4.29-1.58-5.89-5.98-5.92-8.76-.07-17.52-.04-26.28,.02-1.1,0-2.77-.66-2.73,1.58,.04,2.27,1.74,1.45,2.8,1.46,8.41,.07,16.82,.2,25.23-.02,3.22-.08,3.94,1.05,3.9,4.03-.14,11.8-.06,23.6-.06,35.39,0,8.41,0,8.45-8.5,8.47-21.96,.03-43.92,.01-65.88,.03-2.94,0-4.65-.73-4.59-4.36,.21-13.2,.16-26.4,.05-39.6-.02-2.74,.51-4.02,3.63-3.96,8.52,.18,17.05,.08,25.58,.02,1.06,0,2.74,.84,2.86-1.4,.13-2.24-1.52-1.65-2.65-1.66-8.76-.04-17.52-.07-26.28,.01-4.87,.05-6.19,1.46-6.2,6.36-.02,14.84,.05,29.67-.06,44.51-.02,2.53,.54,3.37,3.26,3.33,13.08-.16,26.16-.07,39.25-.07Zm7.66-33.98c2.77-3.33,5.13-2.22,7.93-.5,7.84,4.79,6.88,2.47,4.94,11.13-1.02,4.55,1.59,9.08,6.07,10.43,1.45,.44,2.89,.94,4.36,1.26,1.82,.4,2.97,1.15,2.71,3.28-.12,.99-.23,2.11,1.45,2.14,1.93,.03,1.61-1.29,1.61-2.39,0-12.39-.03-24.77,0-37.16,0-1.58-.44-2.31-2.17-2.3-8.3,.05-16.59,.02-24.89-.03-1.46,0-2.08,.45-2.05,2.01,.09,4.04,.03,8.08,.03,12.12Zm16.87,27.9s0-.01,0-.02c1.52,0,3.03,0,4.55,0,.69,0,1.45,.06,1.58-.92,.12-.89-.08-1.62-1.06-1.91-1.11-.34-2.25-.62-3.32-1.06-1.8-.74-4.39-.36-5.36-2.14-2.17-4-5.95-7.8-2.93-13.05,.39-.68,.41-1.57,.57-2.37,.17-.85,.01-1.55-.7-2.19-3.6-3.26-5.93-3.27-9.5,.05-.26,.24-.49,.49-.75,.73-4.15,3.77-11.14,3.64-15.16-.21-1.33-1.28-2.89-3.53-4.16-3.41-2.13,.21-4.23,1.78-6.1,3.12-1.4,1.01-.25,2.57-.06,3.88,.35,2.48,2.06,4.94,.72,7.45-2.22,4.16-4.43,8.5-10.19,8.55-.56,0-1.1,.42-1.66,.5-1.17,.18-1.55,.86-1.43,1.96,.13,1.22,1.06,1.03,1.84,1.04,1.98,.03,4-.21,5.94,.07,3.12,.44,4.26-.69,4.99-3.82,1.92-8.24,9.32-13.42,18.22-13.36,8.17,.05,15.83,5.7,17.45,13.51,.65,3.12,1.92,4.06,4.78,3.64,.57-.08,1.17-.01,1.75-.01Zm-24.4,0c4.31,0,8.63-.15,12.92,.06,2.7,.13,2.82-.91,2.21-3.06-1.87-6.55-8.46-11.39-15.51-11.25-6.89,.13-13.12,5.09-14.89,11.63-.55,2.03-.18,2.72,2,2.67,4.42-.12,8.85-.04,13.28-.04Zm-8.05,9.02c2.94,3.79,11.63,4.62,14.69,1.93,.42-.37,1-.71,.79-1.38-.22-.73-.93-.54-1.46-.54-4.49-.02-8.98-.01-14.02-.01ZM79.93,5.68c-.48-1.58-1.49-2.71-3.19-2.68-1.93,.03-3.03,1.22-2.92,3.17,.1,1.77,1.26,2.81,3,2.77,1.95-.04,2.75-1.46,3.11-3.26Zm-50.43-.12c-.34-1.63-1.42-2.73-3.29-2.56-1.65,.15-2.76,1.19-2.73,2.95,.03,1.94,1.33,3.04,3.09,2.99,1.78-.04,2.9-1.24,2.93-3.38Zm25.28,3.67c-.49-1.58-1.27-2.97-3.25-2.84-1.87,.12-2.95,1.23-2.89,3.16,.05,1.84,1.35,2.71,2.93,2.79,1.92,.11,2.76-1.3,3.21-3.12Z"/>
  <path class="uuid-29f05316-a847-401a-881c-c78e88ef0fbd" d="M43.67,51.79c-2.52-4.59-5.22-2.8-7.93-.96-.1,.07-.2,.13-.29,.19-6.97,4.31-6.29,1.76-4.34,10.41,1.1,4.87-1.27,9.26-5.97,10.66-1.45,.43-2.89,.94-4.36,1.26-1.84,.41-2.89,1.22-2.66,3.33,.13,1.12,.12,2.41-1.73,2.28-1.68-.12-1.34-1.28-1.34-2.28,0-12.37,.05-24.74-.04-37.11-.02-2.23,.81-2.74,2.86-2.72,7.93,.1,15.87,.1,23.8,0,1.97-.03,2.64,.5,2.55,2.53-.16,3.81-.05,7.64-.05,11.46-.17,.31-.34,.63-.51,.94Z"/>
  <path class="uuid-29f05316-a847-401a-881c-c78e88ef0fbd" d="M51.35,97.09c-14.01,0-28.03-.12-42.04,.05-6.39,.08-6.46-3.65-6.25-7.95,.07-1.5,1.12-1.2,2-1.2,11.21,0,22.42,.01,33.63-.04,1.27,0,1.87,.48,2.34,1.57,1.38,3.14,3.95,4.44,7.27,4.45,2.45,0,4.91,.04,7.35-.05,2.9-.1,5.24-1.29,6.39-4.07,.65-1.57,1.65-1.92,3.25-1.92,11.2,.01,22.39-.04,33.59-.19,.95-.01,1.21,.28,1.44,.93,1.54,4.38-1.22,8.41-5.89,8.42-13.78,.05-27.56,.01-41.34,.01-.58,0-1.17,0-1.75,0Z"/>
  <path class="uuid-29f05316-a847-401a-881c-c78e88ef0fbd" d="M51.54,85.01c-13.08,0-26.17-.09-39.25,.07-2.72,.03-3.28-.8-3.26-3.33,.11-14.83,.03-29.67,.06-44.51,0-4.89,1.34-6.31,6.2-6.36,8.76-.08,17.52-.05,26.28-.01,1.13,0,2.77-.59,2.65,1.66-.13,2.24-1.8,1.39-2.86,1.4-8.53,.07-17.06,.16-25.58-.02-3.11-.07-3.65,1.22-3.63,3.96,.11,13.2,.16,26.4-.05,39.6-.06,3.63,1.65,4.36,4.59,4.36,21.96-.01,43.92,0,65.88-.03,8.5-.01,8.5-.06,8.5-8.47,0-11.8-.08-23.6,.06-35.39,.04-2.98-.68-4.11-3.9-4.03-8.4,.22-16.82,.09-25.23,.02-1.06,0-2.76,.81-2.8-1.46-.04-2.24,1.63-1.58,2.73-1.58,8.76-.05,17.52-.08,26.28-.02,4.41,.03,5.98,1.63,5.98,5.92,.02,15.07-.07,30.14,.05,45.2,.02,2.51-.69,3.09-3.1,3.07-13.2-.12-26.4-.06-39.6-.06Z"/>
  <path class="uuid-29f05316-a847-401a-881c-c78e88ef0fbd" d="M59.2,51.04c0-4.04,.06-8.08-.03-12.12-.03-1.57,.59-2.02,2.05-2.01,8.3,.05,16.59,.07,24.89,.03,1.73,0,2.17,.72,2.17,2.3-.03,12.39,0,24.77,0,37.16,0,1.1,.32,2.41-1.61,2.39-1.68-.02-1.58-1.14-1.45-2.14,.26-2.13-.89-2.88-2.71-3.28-1.48-.32-2.91-.83-4.36-1.26-4.48-1.35-7.09-5.88-6.07-10.43,1.94-8.66,2.9-6.35-4.94-11.13-2.81-1.71-5.16-2.83-7.93,.5Z"/>
  <path class="uuid-29f05316-a847-401a-881c-c78e88ef0fbd" d="M76.07,78.94c-.58,0-1.18-.07-1.75,.01-2.86,.42-4.13-.52-4.78-3.64-1.62-7.8-9.29-13.46-17.45-13.51-8.9-.05-16.3,5.12-18.22,13.36-.73,3.13-1.87,4.26-4.99,3.82-1.95-.27-3.96-.04-5.94-.07-.78,0-1.71,.19-1.84-1.04-.12-1.1,.26-1.78,1.43-1.96,.57-.09,1.11-.5,1.66-.5,5.76-.05,7.96-4.39,10.19-8.55,1.34-2.51-.37-4.97-.72-7.45-.19-1.31-1.34-2.87,.06-3.88,1.87-1.34,3.97-2.92,6.1-3.12,1.27-.12,2.83,2.13,4.16,3.41,4.02,3.85,11.01,3.98,15.16,.21,.26-.23,.5-.49,.75-.73,3.57-3.31,5.9-3.31,9.5-.05,.71,.64,.86,1.34,.7,2.19-.16,.8-.18,1.7-.57,2.37-3.02,5.25,.76,9.05,2.93,13.05,.97,1.79,3.56,1.4,5.36,2.14,1.07,.44,2.21,.73,3.32,1.06,.98,.3,1.18,1.02,1.06,1.91-.13,.97-.89,.91-1.58,.92-1.52,.01-3.03,0-4.55,0,0,0,0,.01,0,.02Z"/>
  <path class="uuid-29f05316-a847-401a-881c-c78e88ef0fbd" d="M51.67,78.94c-4.43,0-8.85-.08-13.28,.04-2.18,.06-2.55-.64-2-2.67,1.77-6.54,8-11.49,14.89-11.63,7.05-.14,13.64,4.7,15.51,11.25,.62,2.15,.5,3.19-2.21,3.06-4.3-.21-8.62-.06-12.92-.05Z"/>
  <path class="uuid-29f05316-a847-401a-881c-c78e88ef0fbd" d="M43.61,87.96c5.03,0,9.53,0,14.02,.01,.53,0,1.24-.19,1.46,.54,.2,.67-.37,1.01-.79,1.38-3.06,2.69-11.75,1.86-14.69-1.93Z"/>
  <path class="uuid-29f05316-a847-401a-881c-c78e88ef0fbd" d="M79.93,5.68c-.36,1.79-1.15,3.21-3.11,3.26-1.74,.04-2.89-.99-3-2.77-.11-1.95,.99-3.14,2.92-3.17,1.7-.02,2.71,1.1,3.19,2.68Z"/>
  <path class="uuid-29f05316-a847-401a-881c-c78e88ef0fbd" d="M29.5,5.56c-.03,2.14-1.15,3.33-2.93,3.38-1.76,.04-3.07-1.05-3.09-2.99-.02-1.75,1.08-2.8,2.73-2.95,1.87-.17,2.95,.93,3.29,2.56Z"/>
  <path class="uuid-29f05316-a847-401a-881c-c78e88ef0fbd" d="M54.79,9.23c-.46,1.81-1.29,3.22-3.21,3.12-1.58-.09-2.88-.96-2.93-2.79-.06-1.94,1.02-3.04,2.89-3.16,1.98-.13,2.77,1.26,3.25,2.84Z"/>
</svg>