<?xml version="1.0" encoding="UTF-8"?>
<svg id="uuid-1f2e418b-792c-40e4-b3a3-a304022d783c" data-name="图层 1" xmlns="http://www.w3.org/2000/svg" viewBox="0 0 77.36 100">
  <defs>
    <style>
      .uuid-f5621958-e578-4859-948b-51b7b42176cd {
        fill: #fff;
      }
    </style>
  </defs>
  <path class="uuid-f5621958-e578-4859-948b-51b7b42176cd" d="M33.6,.6c4.23-.74,8.56-.81,12.79-.12,6.13,.99,12.33,5.13,16.89,9.18,4.95,4.39,8.92,9.92,11.34,16.09,4.63,11.83,3.37,25.87-3.56,36.52-2.62,4.03-6.09,7.81-6.85,12.56-.57,3.6,.17,8.09-2.83,10.16-1.75,1.21-4.26,1.06-5.82,2.51-2.73,2.55-.39,7.67-2.75,10.57-1.51,1.86-4.25,1.97-6.64,1.93-6.13-.1-12.26-.21-18.39-.31-.86-.01-1.78-.05-2.47-.56-.67-.5-.98-1.35-1.18-2.17-.92-3.77-.81-8.54-4.21-10.41-1.66-.91-3.84-.86-5.16-2.21-1.35-1.4-1.17-3.61-1.26-5.55-.33-7.36-5.67-13.36-9.09-19.89C-2.53,45.57-1.19,28.34,7.75,16.27,13.88,8,23.44,2.37,33.6,.6Zm-9.21,69.81c2.98-.16,7.13,1.58,8.92-.53,1.53-1.8,.47-5.81,.56-8.84,0-.11,0-.23,0-.34-.08-7.02-2.11-8.88-8.97-7.63-4.1,.74-3.86-3.02-5.51-4.78-1.36-1.45-.55-2.87,.62-4.17,4.02-4.47,4.07-5.24,.11-9.36-1.51-1.57-1.89-2.99-.44-4.7,1.55-1.84,1.49-5.46,5.61-4.39,5.56,1.44,6.49,.78,8.17-4.71,.55-1.78,1.29-3.03,3.49-2.68,1.1,.18,2.26,.1,3.38-.01,1.93-.19,2.79,.67,3.33,2.5,1.7,5.71,2.35,6.18,8.37,4.89,4.04-.86,4.05,2.63,5.58,4.51,1.47,1.79,.82,3.16-.67,4.66-3.86,3.88-3.8,4.96,.06,9.19,.75,.82,1.67,1.51,1.45,2.86-.69,4.2-4.13,6.6-8.19,5.64-3.02-.71-5.07,.57-6.11,3.61-1.36,3.97-.49,8.06-.83,12.08-.18,2.06,.68,2.48,2.5,2.42,3.16-.11,6.37-.38,9.47,.05,4.8,.67,7.36-1.43,10.01-5.27,7.95-11.51,11.93-23.49,6.69-37.23-5.02-13.17-14.1-22.21-28.21-24.44C29.6,1.5,17.94,7.04,10.01,18.93,.34,33.42,.32,48.1,10.26,62.84c3.56,5.28,6.68,9.92,14.13,7.56Zm27.63-20.68c1.3,.47,1.55-.89,2.21-1.74,.98-1.27,.17-1.98-.62-2.86-3.58-3.96-3.61-7.64-.17-11.35,.9-.97,1.85-1.71,.74-3.38-1-1.5-1.95-1.46-3.4-1.14-4.84,1.08-8.15-.84-9.59-5.59-.43-1.41-.78-2.42-2.63-2.36-1.8,.06-2.19,1.08-2.63,2.46-1.5,4.69-4.55,6.5-9.3,5.52-1.53-.32-2.65-.46-3.66,1.2-1.16,1.9,.16,2.63,1.14,3.64,2.85,2.91,2.87,7.5,.04,10.41-.98,1.01-2.23,1.71-1.19,3.66,.99,1.84,2.16,1.53,3.63,1.22,4.66-.97,7.88,.9,9.34,5.44,.42,1.3,.64,2.41,2.56,2.44,2.06,.04,2.54-1.11,2.79-2.57,.37-2.18,1.66-3.3,3.43-4.58,2.47-1.79,4.64-1.06,7.3-.42Zm-35.4,30.48c1.48,3.22,3.8,3.39,6.2,3.39,10.39,0,20.77-.02,31.16-.04,6.2-.01,7.31-1.29,7.09-7.64-.05-1.6-.46-2.19-2.1-2.19-13.55,.04-27.1,.03-40.64,0-1.3,0-2.17,.23-2.22,1.8-.06,1.77,1.09,1.65,2.25,1.65,4.97,0,9.93,0,14.9,0,4.18,0,8.35,0,12.53,.02,.96,0,1.85,.21,1.89,1.42,.04,1.2-.83,1.5-1.78,1.58-.78,.06-1.58,.01-2.37,.01-8.78,0-17.56,0-26.91,0Zm21.84,6.53c-1.91,0-3.83,0-5.74,0q-7.67,0-5.86,7.48c.08,.33,.16,.65,.25,.98,.21,.84,.61,1.41,1.6,1.41,6.64,0,13.29,.03,19.93,0,1.64,0,1.53-1.4,1.62-2.46,.15-1.62-1.16-.98-1.88-1-3.04-.07-6.08-.02-9.12-.05-1.01-.01-2.12,0-2.04-1.54,.07-1.45,1.06-1.49,2.14-1.48,3.38,.01,6.76-.01,10.14,.01,1.17,0,2.14,.09,2.22-1.62,.08-1.75-.87-1.74-2.09-1.73-3.72,.03-7.43,0-11.15,0Zm1.74-21.2c0-1,0-2.01,0-3.01,0-1.1,.23-2.16-1.58-2.18-1.73-.02-1.71,.87-1.69,2.08,.04,2.23,.07,4.46-.01,6.69-.05,1.26,.6,1.44,1.62,1.46,1,.02,1.75-.05,1.67-1.36-.07-1.22-.02-2.45-.02-3.68Z"/>
  <path class="uuid-f5621958-e578-4859-948b-51b7b42176cd" d="M38.5,30.43c4.79-.03,8.92,3.99,8.96,8.73,.05,5.05-3.97,9.12-8.94,9.07-4.96-.05-8.67-3.86-8.67-8.89,0-5.02,3.75-8.87,8.66-8.91Zm.07,3.07c-2.77,0-5.61,2.85-5.68,5.7-.07,2.98,2.82,6.03,5.73,6.03,2.91,0,5.68-2.99,5.62-6.07-.06-2.86-2.86-5.65-5.67-5.65Z"/>
  <path class="uuid-f5621958-e578-4859-948b-51b7b42176cd" d="M53.98,80.21c-1.16-.07-2.46,.25-2.49-1.49-.03-2.06,1.53-1.5,2.63-1.52,1.06-.02,2.47-.22,2.47,1.43,0,1.87-1.56,1.46-2.61,1.58Z"/>
</svg>